<svg width="234" height="18" version="1.1" viewBox="0 0 234 18" xmlns="http://www.w3.org/2000/svg" xmlns:xlink="http://www.w3.org/1999/xlink">
 <defs>
  <filter id="filter1070" color-interpolation-filters="sRGB">
   <feFlood flood-color="rgb(0,0,0)" flood-opacity="1" result="flood"/>
   <feComposite in="flood" in2="SourceGraphic" operator="in" result="composite1"/>
   <feGaussianBlur in="composite1" result="blur" stdDeviation="0.4"/>
   <feOffset dx="0" dy="0" result="offset"/>
   <feComposite in="SourceGraphic" in2="offset" result="fbSourceGraphic"/>
   <feColorMatrix in="fbSourceGraphic" result="fbSourceGraphicAlpha" values="0 0 0 -1 0 0 0 0 -1 0 0 0 0 -1 0 0 0 0 1 0"/>
   <feFlood flood-color="rgb(0,0,0)" flood-opacity="1" in="fbSourceGraphic" result="flood"/>
   <feComposite in="flood" in2="fbSourceGraphic" operator="in" result="composite1"/>
   <feGaussianBlur in="composite1" result="blur" stdDeviation=".4"/>
   <feOffset dx="0" dy="0" result="offset"/>
   <feComposite in="fbSourceGraphic" in2="offset" result="composite2"/>
  </filter>
 </defs>
 <g id="toolbar" stroke="#000" stroke-width=".2" fill="#fff" filter="url(#filter1070)">
  <path id="download" d="m37.5 9h4.45v-7h6.09v7h4.45l-7.5 7z" />
  <path id="addon" d="m65.932 16.998c.49683 0 .99366-.49994.99366-.99987v-3.9995s.19873-.7999.79493-.7999c.5962 0 .5962.7999 1.7886.7999.5962 0 1.4905-.19998 1.4905-1.9997 0-1.7998-.8943-1.9997-1.4905-1.9997-1.093 0-1.1924.7999-1.7886.7999-.5962 0-.79493-.7999-.79493-.7999v-1.9997c0-.59992-.39746-.99987-.99366-.99987h-2.981s-.79493-.09999-.79493-.7999c0-.69991.79493-.59992.79493-1.6998 0-.59992-.19873-1.4998-1.9873-1.4998-1.7886 0-1.9873.89988-1.9873 1.4998 0 1.0999.79493 1.1998.79493 1.7998 0 .59992-.79493.69991-.79493.69991h-2.981c-.5962 0-.99366.39995-.99366.99987v2.4997s-.09937 1.4998 1.093 1.4998c.79493 0 .8943-.99987 1.888-.99987.49683 0 .99366.49994.99366 1.5998 0 .99987-.49683 1.5998-.99366 1.5998-.99366 0-1.093-.99987-1.888-.99987-1.1924-.19997-1.093 1.2998-1.093 1.2998v3.4996c0 .59992.39746.99987.99366.99987h3.8753s1.4905.09999 1.4905-1.0999c0-.7999-.99366-.89989-.99366-1.8998 0-.49994.69556-1.1998 1.7886-1.1998 1.093 0 1.888.69991 1.888 1.1998 0 .99987-.99366 1.0999-.99366 1.8998 0 1.1998 1.4905 1.0999 1.4905 1.0999z"/>
  <path id="history" d="m27 2c-3.87 0-7 3.13-7 7s3.13 7 7 7 7-3.13 7-7-3.13-7-7-7zm0 2c2.76 0 5 2.24 5 5s-2.24 5-5 5-5-2.24-5-5 2.24-5 5-5zm-.7 1.2c-.236.236-.3.8-.3.8v4l4 2-2-3v-3s-.0643-.564-.3-.8-.7-.2-.7-.2-.464-.0357-.7.2z"/>
  <g id="bookmarks">
   <path id="bookmarks-star" d="m5 2v14h9.95c.992-.258 1.82-1.04 2.05-2v-10c-.233-.962-1.06-1.74-2.05-2zm6 3c.205 0 .599.502.943 1.2.589 1.2.597 1.2 1.83 1.36 1.5.187 1.6.552.441 1.67-.794.765-.796.766-.646 2.26.176 1.76.0164 1.86-1.58.922-.985-.576-.986-.576-1.97 0-1.6.933-1.76.841-1.58-.922.149-1.5.15-1.5-.645-2.26-1.17-1.12-1.07-1.5.445-1.69 1.23-.154 1.24-.161 1.83-1.35.341-.694.735-1.19.939-1.19z"/>
   <path id="bookmarks-overlay" d="m3 2c-.992.258-1.77 1.04-2 2v10c.233.962 1.01 1.74 2 2h2.5v-14z"/>
   <path id="bookmarks-divider" d="m5 2v14h.5v-14z" stroke="#000" stroke-width=".3"/>
  </g>
  <path id="aios-window-2" d="m164.44 2c-.91394.27798-1.1519.81094-1.4379 1.6879v10.437c.21699 1.3299.75295 1.6359 2.0629 1.8749h11.937c1.3049-.20498 1.7049-.57396 1.9999-1.8749v-10.125c-.19799-1.2279-.49997-1.6299-1.6879-1.9999zm7.5625.99993h.99993v.99993h-.99993zm1.9999 0h.99994v.99993h-.99994zm1.9999 0h1.9999v.99993h-1.9999zm-7.9995 2.9998h9.9994v8.9994h-9.9994z"/>
  <path id="multipanel" d="m88.546 11.386-4.2432.0212 1.3825 4.0118-3.4453-2.477-1.2396 4.0582-1.3314-4.029-3.3882 2.5545 1.2911-4.0421-4.2426.075094 3.4204-2.5113-3.4765-2.433 4.2432-.021195-1.3825-4.0118 3.4453 2.477 1.2396-4.0582 1.3314 4.029 3.3882-2.5545-1.2911 4.0421 4.2426-.075094-3.4204 2.5113z"/>
  <path id="aios-window-4" d="m200.44 2c-.91394.27798-1.1515.81056-1.4375 1.6875v10.438c.21699 1.3299.75258 1.636 2.0625 1.875h11.938c1.3049-.20498 1.705-.57409 2-1.875v-10.125c-.19799-1.2279-.49958-1.63-1.6875-2zm7.5625 1h1v1h-1zm2 0h1v1h-1zm2 0h2v1h-2zm-12 3h14v9h-14zm1 1v3h3v-3zm0 4v3h3v-3z"/>
  <path id="error-console" d="m117 12c-1.0667 0-2 .93333-2 2s.93334 2 2 2 2-.93333 2-2-.93334-2-2-2zm0-1.3333c.8 0 1.3333-.53333 1.3333-1.3333l.26666-5.6c0-.93333-.66666-1.6-1.6-1.6s-1.6.66667-1.6 1.6l.26666 5.6c0 .8.53334 1.3333 1.3333 1.3333z"/>
  <path id="page-info" d="m99 2a7 7 0 00-7 7 7 7 0 007 7 7 7 0 007-7 7 7 0 00-7-7zm0 2.4062a1.0938 1.0938 0 011.0938 1.0937 1.0938 1.0938 0 01-1.0938 1.0938 1.0938 1.0938 0 01-1.0938-1.0938 1.0938 1.0938 0 011.0938-1.0937zm0 3.7187c.48475 0 .875.39025.875.875v3.5c0 .48475-.39025.875-.875.875s-.875-.39025-.875-.875v-3.5c0-.48475.39025-.875.875-.875z" />
  <path id="aios-window-3" d="m182.44 2c-.91394.27798-1.1515.81056-1.4375 1.6875v10.438c.21699 1.3299.75258 1.636 2.0625 1.875h11.938c1.3049-.20498 1.705-.57409 2-1.875v-10.125c-.19799-1.2279-.49958-1.63-1.6875-2zm7.5625 1h1v1h-1zm2 0h1v1h-1zm2 0h2v1h-2zm-8 3h10v9h-10zm5 2-3 3 3 3zm1 0v6l3-3z"/>
  <path id="aios-window-1" d="m146.44 2c-.91394.27798-1.1515.81056-1.4375 1.6875v10.438c.21699 1.3299.75258 1.636 2.0625 1.875h11.938c1.3049-.20498 1.705-.57409 2-1.875v-10.125c-.19799-1.2279-.49958-1.63-1.6875-2zm7.5625 1h1v1h-1zm2 0h1v1h-1zm2 0h2v1h-2zm-8 3h10v9h-10zm3 5 3 3 3-3z"/>
  <path id="panel-tab" d="m133 4-6 5 6 5v-4h4v4l6-5-6-5v4h-4z"/>
  <path id="cookie" d="m224.96 1.002a8 8 0 00-7.9551 7.998 8 8 0 008 8 8 8 0 008-8 8 8 0 00-1.2461-4.2852 5 5 0 01-1.8867.37305 5 5 0 01-.42578-.021484 2 2 0 01-1.5742.76758 2 2 0 01-2-2 2 2 0 01.10156-.62109 5 5 0 01-1.0137-2.2109zm-3.25 3.8711a1 1 0 011 1 1 1 0 01-1 1 1 1 0 01-1-1 1 1 0 011-1zm7 2a1 1 0 011 1 1 1 0 01-1 1 1 1 0 01-1-1 1 1 0 011-1zm-3.7852.64453a1 1 0 011 1 1 1 0 01-1 1 1 1 0 01-1-1 1 1 0 011-1zm-3.2148 2.3555a1 1 0 011 1 1 1 0 01-1 1 1 1 0 01-1-1 1 1 0 011-1zm5 2a1 1 0 011 1 1 1 0 01-1 1 1 1 0 01-1-1 1 1 0 011-1z"/>
 </g>
</svg>
