<?xml version="1.0" encoding="UTF-8" standalone="no"?>
<!DOCTYPE svg PUBLIC "-//W3C//DTD SVG 1.1//EN" "http://www.w3.org/Graphics/SVG/1.1/DTD/svg11.dtd">
<svg width="80px" height="32px" version="1.1" xmlns="http://www.w3.org/2000/svg" xmlns:xlink="http://www.w3.org/1999/xlink" xml:space="preserve" xmlns:serif="http://www.serif.com/" style="fill-rule:evenodd;clip-rule:evenodd;stroke-linejoin:round;stroke-miterlimit:2;">
    <g id="toolbar">
        <path id="back" d="M13.71,25.698c-0.236,0.236 -0.7,0.3 -0.7,0.3l-5,0l2.13,2.09c0.519,0.508 0.595,1.27 0.198,1.7l-0.793,0.955c-0.396,0.424 -1.09,0.318 -1.59,-0.212l-5.36,-5.84l-0.595,-0.744l0.595,-0.743l5.26,-5.73c0.496,-0.531 1.19,-0.637 1.59,-0.212l0.794,0.955c0.396,0.425 0.297,1.17 -0.198,1.7l-2.03,2.08l5,0c0,0 0.464,0.065 0.7,0.3c0.236,0.236 0.3,0.7 0.3,0.7l0,2c0,0 -0.064,0.464 -0.3,0.7l-0.001,0.001Z" style="fill:url(#_Radial1);fill-rule:nonzero;"/>
        <path id="back1" serif:id="back" d="M18.301,25.698c0.236,0.236 0.7,0.3 0.7,0.3l5,0l-2.13,2.09c-0.519,0.508 -0.595,1.27 -0.198,1.7l0.793,0.955c0.396,0.424 1.09,0.318 1.59,-0.212l5.36,-5.84l0.595,-0.744l-0.595,-0.743l-5.26,-5.73c-0.496,-0.531 -1.19,-0.637 -1.59,-0.212l-0.794,0.955c-0.396,0.425 -0.297,1.17 0.198,1.7l2.03,2.08l-5,0c0,0 -0.464,0.065 -0.7,0.3c-0.236,0.236 -0.3,0.7 -0.3,0.7l0,2c0,0 0.064,0.464 0.3,0.7l0.001,0.001Z" style="fill:url(#_Radial2);fill-rule:nonzero;"/>
        <path id="stop" d="M47,19.315l-4.598,4.631l4.598,4.631l-2.294,2.315l-4.706,-4.523l-4.598,4.631l-2.294,-2.315l4.598,-4.739l-4.706,-4.631l2.294,-2.315l4.706,4.631l4.598,-4.631l2.402,2.315Z" style="fill:url(#_Radial3);fill-rule:nonzero;"/>
        <path id="home" d="M67,24l-3,0l8,-7l8,7l-3,0l0,7l-4,0l0,-4l-2,0l0,4l-4,0l0,-7Z" style="fill:url(#_Radial4);fill-rule:nonzero;"/>
        <path id="reload" d="M62.5,8l-7,0l2.8,-2.8c-0.7,-0.5 -1.4,-0.7 -2.3,-0.7c-2.2,0 -4,1.8 -4,4c0,2.2 1.8,4 4,4c1.4,0 2.7,-0.7 3.4,-1.9l2.3,1c-1.1,2 -3.2,3.4 -5.7,3.4c-3.6,0 -6.5,-2.9 -6.5,-6.5c0,-3.6 2.9,-6.5 6.5,-6.5c1.5,0 2.9,0.5 4.1,1.4l2.4,-2.4l0,7Z" style="fill:url(#_Radial5);fill-rule:nonzero;"/>
        <path d="M11.455,13.922l-0.619,-1.558c0.309,-0.208 0.516,-0.416 0.825,-0.624c0.206,-0.208 0.413,-0.519 0.619,-0.727l1.547,0.623c0.309,0.104 0.516,0 0.722,-0.311l0.412,-0.935c0.103,-0.312 0,-0.52 -0.309,-0.728l-1.65,-0.623c0.103,-0.623 0.103,-1.351 0,-1.974l1.547,-0.623c0.309,-0.104 0.412,-0.416 0.309,-0.728l-0.412,-0.935c-0.103,-0.311 -0.413,-0.415 -0.722,-0.311l-1.547,0.623c-0.103,-0.208 -0.31,-0.52 -0.619,-0.727c-0.206,-0.208 -0.516,-0.416 -0.722,-0.624l0.619,-1.558c0.103,-0.312 0,-0.52 -0.31,-0.727l-0.928,-0.416c-0.309,-0.104 -0.515,0 -0.722,0.312l-0.515,1.558c-0.619,-0.104 -1.341,-0.104 -1.96,0l-0.619,-1.558c-0.103,-0.312 -0.412,-0.416 -0.721,-0.312l-0.929,0.416c-0.206,0.103 -0.412,0.415 -0.309,0.727l0.619,1.558c-0.206,0.104 -0.516,0.312 -0.722,0.624c-0.206,0.207 -0.413,0.415 -0.619,0.727l-1.547,-0.727c-0.309,-0.104 -0.516,0 -0.722,0.311l-0.309,0.935c-0.103,0.312 0,0.624 0.206,0.728l1.547,0.623c-0.103,0.623 -0.103,1.351 0,1.974l-1.547,0.623c-0.309,0.104 -0.412,0.416 -0.309,0.728l0.412,0.935c0.103,0.311 0.413,0.415 0.722,0.311l1.547,-0.623c0.103,0.208 0.309,0.52 0.619,0.727c0.206,0.208 0.516,0.416 0.722,0.624l-0.619,1.558c-0.103,0.312 0,0.52 0.309,0.727l0.929,0.416c0.309,0.104 0.515,0 0.721,-0.312l0.516,-1.558c0.619,0.104 1.341,0.104 1.96,0l0.618,1.558c0.104,0.312 0.413,0.416 0.722,0.312l0.928,-0.416c0.207,-0.103 0.413,-0.415 0.31,-0.623Zm-5.157,-4.26c-0.928,-0.935 -0.928,-2.389 0,-3.324c0.929,-0.935 2.372,-0.935 3.301,0c0.928,0.935 0.928,2.389 0,3.324c-0.929,0.935 -2.372,0.935 -3.301,0Z" style="fill:url(#_Radial6);fill-rule:nonzero;"/>
        <path d="M24,1c3.863,0 7,3.137 7,7c0,3.863 -3.137,7 -7,7c-3.863,0 -7,-3.137 -7,-7c0,-3.863 3.137,-7 7,-7Zm3.968,4.323l-2.628,2.646l2.628,2.646l-1.311,1.323l-2.689,-2.584l-2.628,2.646l-1.311,-1.323l2.628,-2.708l-2.689,-2.646l1.31,-1.323l2.69,2.646l2.627,-2.646l1.373,1.323Z" style="fill:url(#_Radial7);"/>
        <path d="M74.2,1l3.3,4l0,9.5c0,0.26 -0.264,0.5 -0.55,0.5l-9.899,0c-0.287,0 -0.55,-0.24 -0.55,-0.5l0,-13c0,-0.26 -0.029,-0.5 0.258,-0.5l7.441,0Zm-1.941,1c-0.287,0 -0.259,0.24 -0.259,0.5l0,4c0,0.26 0.263,0.5 0.55,0.5l3.3,0c0.286,0 0.55,-0.24 0.55,-0.5l0,-0.5l-3.3,-4l-0.841,0Z" style="fill:url(#_Radial8);fill-rule:nonzero;"/>
    </g>
    <defs>
        <radialGradient id="_Radial1" cx="0" cy="0" r="1" gradientUnits="userSpaceOnUse" gradientTransform="matrix(6.23924,0,0,6.38354,8.00563,23.9235)"><stop offset="0" style="stop-color:#87939b;stop-opacity:1"/><stop offset="0.05" style="stop-color:#87939b;stop-opacity:1"/><stop offset="1" style="stop-color:#45555f;stop-opacity:1"/></radialGradient>
        <radialGradient id="_Radial2" cx="0" cy="0" r="1" gradientUnits="userSpaceOnUse" gradientTransform="matrix(-6.23924,0,0,6.38354,24.0056,23.9235)"><stop offset="0" style="stop-color:#87939b;stop-opacity:1"/><stop offset="0.05" style="stop-color:#87939b;stop-opacity:1"/><stop offset="1" style="stop-color:#45555f;stop-opacity:1"/></radialGradient>
        <radialGradient id="_Radial3" cx="0" cy="0" r="1" gradientUnits="userSpaceOnUse" gradientTransform="matrix(7.2723,0,0,6.38127,40,23.921)"><stop offset="0" style="stop-color:#87939b;stop-opacity:1"/><stop offset="0.05" style="stop-color:#87939b;stop-opacity:1"/><stop offset="1" style="stop-color:#45555f;stop-opacity:1"/></radialGradient>
        <radialGradient id="_Radial4" cx="0" cy="0" r="1" gradientUnits="userSpaceOnUse" gradientTransform="matrix(8.3112,0,0,6.38127,72,23.921)"><stop offset="0" style="stop-color:#87939b;stop-opacity:1"/><stop offset="0.05" style="stop-color:#87939b;stop-opacity:1"/><stop offset="1" style="stop-color:#45555f;stop-opacity:1"/></radialGradient>
        <radialGradient id="_Radial5" cx="0" cy="0" r="1" gradientUnits="userSpaceOnUse" gradientTransform="matrix(6.75285,0,0,6.38127,56,7.921)"><stop offset="0" style="stop-color:#87939b;stop-opacity:1"/><stop offset="0.05" style="stop-color:#87939b;stop-opacity:1"/><stop offset="1" style="stop-color:#45555f;stop-opacity:1"/></radialGradient>
        <radialGradient id="_Radial6" cx="0" cy="0" r="1" gradientUnits="userSpaceOnUse" gradientTransform="matrix(7.2723,0,0,6.38127,8,7.921)"><stop offset="0" style="stop-color:#87939b;stop-opacity:1"/><stop offset="0.05" style="stop-color:#87939b;stop-opacity:1"/><stop offset="1" style="stop-color:#45555f;stop-opacity:1"/></radialGradient>
        <radialGradient id="_Radial7" cx="0" cy="0" r="1" gradientUnits="userSpaceOnUse" gradientTransform="matrix(6.20223,0,0,5.44232,23.8277,7.98438)"><stop offset="0" style="stop-color:#87939b;stop-opacity:1"/><stop offset="0.05" style="stop-color:#87939b;stop-opacity:1"/><stop offset="1" style="stop-color:#45555f;stop-opacity:1"/></radialGradient>
        <radialGradient id="_Radial8" cx="0" cy="0" r="1" gradientUnits="userSpaceOnUse" gradientTransform="matrix(5.71395,0,0,6.38127,72,7.921)"><stop offset="0" style="stop-color:#87939b;stop-opacity:1"/><stop offset="0.05" style="stop-color:#87939b;stop-opacity:1"/><stop offset="1" style="stop-color:#45555f;stop-opacity:1"/></radialGradient>
    </defs>
</svg>
