<svg xmlns="http://www.w3.org/2000/svg" width="234" height="18" viewBox="0 0 234 18">
  <defs>
    <radialGradient id="globalGradient" cy=".7">
      <stop id="stop1078" offset=".05" stop-color="#87939b"/>
      <stop id="stop1080" offset="1" stop-color="#45555f"/>
    </radialGradient>
    <filter id="insetShadow" color-interpolation-filters="sRGB">
      <feFlood id="feFlood6489" result="flood"/>
      <feComposite id="feComposite6491" in="flood" in2="SourceGraphic" operator="out" result="composite1"/>
      <feGaussianBlur id="feGaussianBlur6493" in="composite1" result="blur" stdDeviation="1"/>
      <feOffset id="feOffset6495" result="offset"/>
      <feComposite id="feComposite6497" in="offset" in2="SourceGraphic" operator="atop" result="fbSourceGraphic"/>
      <feColorMatrix id="feColorMatrix6499" in="fbSourceGraphic" result="fbSourceGraphicAlpha" values="0 0 0 -1 0 0 0 0 -1 0 0 0 0 -1 0 0 0 0 1 0"/>
      <feFlood id="feFlood6501" flood-color="#FFF" flood-opacity=".471" result="flood"/>
      <feComposite id="feComposite6503" in="flood" in2="fbSourceGraphic" operator="in" result="composite1"/>
      <feGaussianBlur id="feGaussianBlur6505" in="composite1" result="blur" stdDeviation=".6"/>
      <feOffset id="feOffset6507" result="offset"/>
      <feComposite id="feComposite6509" in="fbSourceGraphic" in2="offset" result="fbSourceGraphic"/>
      <feColorMatrix id="feColorMatrix6511" in="fbSourceGraphic" result="fbSourceGraphicAlpha" values="0 0 0 -1 0 0 0 0 -1 0 0 0 0 -1 0 0 0 0 1 0"/>
      <feFlood id="feFlood6513" flood-color="#FFF" result="flood"/>
      <feComposite id="feComposite6515" in="flood" in2="fbSourceGraphic" operator="in" result="composite1"/>
      <feGaussianBlur id="feGaussianBlur6517" in="composite1" result="blur" stdDeviation=".6"/>
      <feOffset id="feOffset6519" result="offset"/>
      <feComposite id="feComposite6521" in="fbSourceGraphic" in2="offset" result="composite2"/>
    </filter>
  </defs>
  <g id="toolbar" filter="url(#insetShadow)">
    <path id="download" fill="url(#globalGradient)" d="M37.5 9h4.45V2h6.09v7h4.45l-7.5 7z"/>
    <path id="addon" fill="url(#globalGradient)" d="M65.932 16.998c.497 0 .994-.5.994-1v-4s.198-.8.795-.8c.596 0 .596.8 1.788.8.596 0 1.49-.2 1.49-2C71 8.2 70.106 8 69.51 8c-1.093 0-1.192.8-1.788.8-.597 0-.795-.8-.795-.8V6c0-.6-.398-1-.994-1h-2.981s-.795-.1-.795-.8c0-.7.795-.6.795-1.699 0-.6-.199-1.5-1.987-1.5-1.789 0-1.988.9-1.988 1.5 0 1.1.795 1.2.795 1.8 0 .6-.795.7-.795.7h-2.98c-.597 0-.994.4-.994 1v2.5s-.1 1.499 1.093 1.499c.795 0 .894-1 1.888-1 .497 0 .993.5.993 1.6 0 1-.496 1.6-.993 1.6-.994 0-1.093-1-1.888-1-1.193-.2-1.093 1.3-1.093 1.3v3.5c0 .6.397 1 .993 1h3.876s1.49.1 1.49-1.1c0-.8-.993-.9-.993-1.9 0-.5.695-1.2 1.788-1.2s1.888.7 1.888 1.2c0 1-.994 1.1-.994 1.9 0 1.2 1.491 1.1 1.491 1.1z"/>
    <path id="history" fill="url(#globalGradient)" d="M27 2c-3.87 0-7 3.13-7 7s3.13 7 7 7 7-3.13 7-7-3.13-7-7-7zm0 2c2.76 0 5 2.24 5 5s-2.24 5-5 5-5-2.24-5-5 2.24-5 5-5zm-.7 1.2c-.236.236-.3.8-.3.8v4l4 2-2-3V6s-.064-.564-.3-.8S27 5 27 5s-.464-.036-.7.2z"/>
    <g id="bookmarks">
      <path id="bookmarks-star" fill="url(#globalGradient)" d="M5 2v14h9.95c.992-.258 1.82-1.04 2.05-2V4c-.233-.962-1.06-1.74-2.05-2zm6 3c.205 0 .599.502.943 1.2.589 1.2.597 1.2 1.83 1.36 1.5.187 1.6.552.441 1.67-.794.765-.796.766-.646 2.26.176 1.76.016 1.86-1.58.922-.985-.576-.986-.576-1.97 0-1.6.933-1.76.841-1.58-.922.149-1.5.15-1.5-.645-2.26-1.17-1.12-1.07-1.5.445-1.69 1.23-.154 1.24-.161 1.83-1.35.341-.694.735-1.19.939-1.19z"/>
      <path id="bookmarks-overlay" fill="#596c77" d="M3 2c-.992.258-1.77 1.04-2 2v10c.233.962 1.01 1.74 2 2h2.5V2z" paint-order="markers stroke fill"/>
      <path id="bookmarks-divider" fill="#2f3941" d="M5 2v14h.5V2z"/>
    </g>
    <path id="aios-window-2" fill="url(#globalGradient)" d="M164.44 2c-.914.278-1.152.81-1.438 1.688v10.437c.217 1.33.753 1.636 2.063 1.875h11.937c1.305-.205 1.705-.574 2-1.875V4c-.198-1.228-.5-1.63-1.688-2zm7.563 1h1v1h-1zm2 0h1v1h-1zm2 0h2v1h-2zm-8 3h10v9h-10z"/>
    <path id="multipanel" fill="url(#globalGradient)" d="M88.546 11.386l-4.243.021 1.382 4.012-3.445-2.477L81 17l-1.331-4.029-3.388 2.555 1.29-4.042-4.242.075 3.42-2.512-3.476-2.433 4.243-.02-1.382-4.013 3.445 2.477L80.82 1l1.331 4.03 3.388-2.555-1.29 4.042 4.242-.075-3.42 2.511z"/>
    <path id="aios-window-4" fill="url(#globalGradient)" d="M200.44 2c-.914.278-1.151.81-1.438 1.688v10.438c.217 1.33.753 1.636 2.063 1.875h11.938c1.305-.205 1.705-.575 2-1.875V4c-.198-1.228-.5-1.63-1.688-2zm7.563 1h1v1h-1zm2 0h1v1h-1zm2 0h2v1h-2zm-12 3h14v9h-14zm1 1v3h3V7zm0 4v3h3v-3z"/>
    <path id="error-console" fill="url(#globalGradient)" d="M117 12c-1.067 0-2 .933-2 2s.933 2 2 2 2-.933 2-2-.933-2-2-2zm0-1.333c.8 0 1.333-.534 1.333-1.334l.267-5.6c0-.933-.667-1.6-1.6-1.6s-1.6.667-1.6 1.6l.267 5.6c0 .8.533 1.334 1.333 1.334z"/>
    <path id="page-info" fill="url(#globalGradient)" d="M99 2a7 7 0 0 0-7 7 7 7 0 0 0 7 7 7 7 0 0 0 7-7 7 7 0 0 0-7-7zm0 2.406a1.094 1.094 0 0 1 1.094 1.094A1.094 1.094 0 0 1 99 6.594 1.094 1.094 0 0 1 97.906 5.5 1.094 1.094 0 0 1 99 4.406zm0 3.719c.485 0 .875.39.875.875v3.5c0 .485-.39.875-.875.875s-.875-.39-.875-.875V9c0-.485.39-.875.875-.875z"/>
    <path id="aios-window-3" fill="url(#globalGradient)" d="M182.44 2c-.914.278-1.151.81-1.438 1.688v10.438c.217 1.33.753 1.636 2.063 1.875h11.938c1.305-.205 1.705-.575 2-1.875V4c-.198-1.228-.5-1.63-1.688-2zm7.563 1h1v1h-1zm2 0h1v1h-1zm2 0h2v1h-2zm-8 3h10v9h-10zm5 2l-3 3 3 3zm1 0v6l3-3z"/>
    <path id="aios-window-1" fill="url(#globalGradient)" d="M146.44 2c-.914.278-1.151.81-1.438 1.688v10.438c.217 1.33.753 1.636 2.063 1.875h11.938c1.305-.205 1.705-.575 2-1.875V4c-.198-1.228-.5-1.63-1.688-2zm7.563 1h1v1h-1zm2 0h1v1h-1zm2 0h2v1h-2zm-8 3h10v9h-10zm3 5l3 3 3-3z"/>
    <path id="panel-tab" fill="url(#globalGradient)" d="M133 4l-6 5 6 5v-4h4v4l6-5-6-5v4h-4z"/>
    <path id="cookie" fill="url(#globalGradient)" d="M224.96 1.002A8 8 0 0 0 217.005 9a8 8 0 0 0 8 8 8 8 0 0 0 8-8 8 8 0 0 0-1.246-4.285 5 5 0 0 1-1.887.373 5 5 0 0 1-.426-.022 2 2 0 0 1-1.574.768 2 2 0 0 1-2-2 2 2 0 0 1 .102-.621 5 5 0 0 1-1.014-2.211zm-3.25 3.871a1 1 0 0 1 1 1 1 1 0 0 1-1 1 1 1 0 0 1-1-1 1 1 0 0 1 1-1zm7 2a1 1 0 0 1 1 1 1 1 0 0 1-1 1 1 1 0 0 1-1-1 1 1 0 0 1 1-1zm-3.785.645a1 1 0 0 1 1 1 1 1 0 0 1-1 1 1 1 0 0 1-1-1 1 1 0 0 1 1-1zm-3.215 2.355a1 1 0 0 1 1 1 1 1 0 0 1-1 1 1 1 0 0 1-1-1 1 1 0 0 1 1-1zm5 2a1 1 0 0 1 1 1 1 1 0 0 1-1 1 1 1 0 0 1-1-1 1 1 0 0 1 1-1z"/>
  </g>
</svg>
